<?xml version="1.0" encoding="iso-8859-1"?>
<!-- Generator: Adobe Illustrator 19.0.0, SVG Export Plug-In . SVG Version: 6.00 Build 0)  -->
<svg version="1.1" id="Capa_1" xmlns="http://www.w3.org/2000/svg" xmlns:xlink="http://www.w3.org/1999/xlink" x="0px" y="0px"
	 viewBox="0 0 512 512" style="enable-background:new 0 0 512 512;" xml:space="preserve" width="30px" height="30px">
<path style="fill:#C9F3FF;" d="M306.778,117.567h-148.53c-37.418,0-67.751,30.333-67.751,67.751v54.091h313.799l-33.83-79.689
	C359.617,134.163,334.542,117.567,306.778,117.567z"/>
<path style="fill:#fcc325;" d="M473.115,362.4H502v-65.519c0-31.741-25.731-57.472-57.472-57.472H264.064h-0.015H67.472
	C35.731,239.408,10,265.14,10,296.881V362.4h45.013"/>
<g>
	<path style="fill:#FFFFFF;" d="M10,296.881v11.497h40.267v-36.784H15.858C12.111,279.225,10,287.805,10,296.881z"/>
	<path style="fill:#FFFFFF;" d="M431.892,277.34h66.695c-7.998-22.121-29.18-37.932-54.06-37.932h-12.635V277.34z"/>
</g>
<g>
	<circle style="fill:#898998;" cx="116.94" cy="362.3" r="32.13"/>
	<circle style="fill:#898998;" cx="411.19" cy="362.3" r="32.13"/>
</g>
<path d="M444.527,229.408h-33.611l-31.244-73.597c-12.442-29.307-41.055-48.244-72.894-48.244h-50.933c-5.522,0-10,4.478-10,10
	s4.478,10,10,10h50.933c23.798,0,45.184,14.154,54.483,36.061l27.926,65.78h-131.79v-73.221c0-5.522-4.478-10-10-10s-10,4.478-10,10
	v73.221h-136.9v-44.091c0-31.844,25.907-57.75,57.751-57.75h20.608c5.522,0,10-4.478,10-10s-4.478-10-10-10h-20.608
	c-42.872,0-77.751,34.879-77.751,77.75v44.091H67.473C30.269,229.408,0,259.677,0,296.881V362.4c0,5.522,4.478,10,10,10h37
	c5.522,0,10-4.478,10-10s-4.478-10-10-10H20v-34.021h30.267c5.522,0,10-4.478,10-10v-36.785c0-5.522-4.478-10-10-10h-14.51
	c8.413-7.569,19.534-12.185,31.715-12.185h354.42v27.932c0,5.522,4.478,10,10,10h59.144c0.632,3.083,0.964,6.274,0.964,9.541v55.519
	h-18.885c-5.522,0-10,4.478-10,10s4.478,10,10,10H502c5.522,0,10-4.478,10-10v-65.519C512,259.677,481.731,229.408,444.527,229.408z
	 M40.267,298.378H20v-1.497c0-5.348,0.902-10.487,2.54-15.288h17.727V298.378z M441.893,267.34v-17.932h2.635
	c15.016,0,28.416,7.015,37.121,17.932H441.893z"/>
<path d="M340,352.399c-2.63,0-5.21,1.07-7.07,2.931c-1.86,1.859-2.93,4.439-2.93,7.069c0,2.631,1.069,5.21,2.93,7.07
	s4.44,2.93,7.07,2.93s5.21-1.069,7.069-2.93c1.86-1.86,2.931-4.439,2.931-7.07c0-2.63-1.07-5.21-2.931-7.069
	C345.21,353.47,342.63,352.399,340,352.399z"/>
<path d="M302.333,352.399h-44.936v-23.917c0-5.522-4.478-10-10-10s-10,4.478-10,10v23.917H185c-5.522,0-10,4.478-10,10
	s4.478,10,10,10h117.333c5.522,0,10-4.478,10-10S307.855,352.399,302.333,352.399z"/>
<path d="M217.779,127.569c2.631,0,5.2-1.069,7.07-2.93c1.86-1.859,2.93-4.439,2.93-7.07c0-2.64-1.069-5.21-2.93-7.069
	c-1.859-1.86-4.439-2.931-7.07-2.931c-2.64,0-5.21,1.07-7.069,2.931c-1.86,1.859-2.931,4.43-2.931,7.069
	c0,2.631,1.07,5.211,2.931,7.07C212.569,126.5,215.14,127.569,217.779,127.569z"/>
<path d="M206.634,296.153l22.434-0.15c5.522-0.037,9.97-4.544,9.933-10.067c-0.037-5.5-4.507-9.933-9.999-9.933
	c-0.022,0-0.046,0-0.068,0l-22.434,0.15c-5.522,0.037-9.97,4.544-9.933,10.067c0.037,5.5,4.507,9.933,9.999,9.933
	C206.588,296.153,206.611,296.153,206.634,296.153z"/>
<path d="M116.935,320.165c-23.232,0-42.134,18.901-42.134,42.134s18.901,42.134,42.134,42.134s42.135-18.901,42.135-42.134
	S140.168,320.165,116.935,320.165z M116.935,384.433c-12.205,0-22.134-9.929-22.134-22.134s9.929-22.134,22.134-22.134
	s22.135,9.929,22.135,22.134S129.14,384.433,116.935,384.433z"/>
<path d="M411.193,320.165c-23.232,0-42.134,18.901-42.134,42.134s18.901,42.134,42.134,42.134s42.135-18.901,42.135-42.134
	S434.427,320.165,411.193,320.165z M411.193,384.433c-12.205,0-22.134-9.929-22.134-22.134s9.929-22.134,22.134-22.134
	s22.135,9.929,22.135,22.134S423.398,384.433,411.193,384.433z"/>
<g>
</g>
<g>
</g>
<g>
</g>
<g>
</g>
<g>
</g>
<g>
</g>
<g>
</g>
<g>
</g>
<g>
</g>
<g>
</g>
<g>
</g>
<g>
</g>
<g>
</g>
<g>
</g>
<g>
</g>
</svg>
