<?xml version="1.0" encoding="iso-8859-1"?>
<!-- Generator: Adobe Illustrator 19.0.0, SVG Export Plug-In . SVG Version: 6.00 Build 0)  -->
<svg version="1.1" id="Capa_1" xmlns="http://www.w3.org/2000/svg" xmlns:xlink="http://www.w3.org/1999/xlink" x="0px" y="0px"
	 viewBox="0 0 512 512" style="enable-background:new 0 0 512 512;" xml:space="preserve" height="30px" width="30px">
<g>
	<path style="fill:#898998;" d="M84.434,391.862L84.434,391.862c-11.035,0-19.98-8.945-19.98-19.98v-19.98h39.959v19.98
		C104.414,382.917,95.469,391.862,84.434,391.862z"/>
	<path style="fill:#898998;" d="M367.445,391.862L367.445,391.862c-11.035,0-19.98-8.945-19.98-19.98v-19.98h39.959v19.98
		C387.424,382.917,378.48,391.862,367.445,391.862z"/>
</g>
<path style="fill:#d0d8db;" d="M9.994,351.902h436.755c30.235,0,54.745-24.51,54.745-54.745l0,0
	c0-14.519-5.768-28.444-16.035-38.711l-90.891-90.891c-30.361-30.361-71.54-47.419-114.478-47.419H9.994"/>
<g>
	<path style="fill:#FFFFFF;" d="M423.074,196.06H283.843c-15.448,0-27.972,12.523-27.972,27.972l0,0
		c0,15.448,12.523,27.972,27.972,27.972h195.175L423.074,196.06z"/>
	<path style="fill:#FFFFFF;" d="M9.994,196.06h155.842c15.448,0,27.972,12.523,27.972,27.972l0,0
		c0,15.448-12.523,27.972-27.972,27.972H9.994"/>
</g>
<path d="M502.01,381.872H395.696c1.109-3.127,1.718-6.487,1.718-9.99v-9.99h49.336c35.695,0,64.735-29.039,64.735-64.735
	c0-17.291-6.733-33.548-18.96-45.775l-6.442-6.442l0,0l-55.943-55.943c-0.001-0.001-0.002-0.002-0.004-0.003l-28.501-28.501
	c-32.465-32.465-75.629-50.345-121.543-50.345H9.994c-5.517,0-9.99,4.473-9.99,9.99c0,5.516,4.472,9.99,9.99,9.99h270.098
	c40.576,0,78.723,15.801,107.414,44.493l11.45,11.45H283.843c-20.932,0-37.961,17.03-37.961,37.961s17.03,37.961,37.961,37.961
	H474.88l3.517,3.517c8.452,8.453,13.109,19.692,13.109,31.647c0,24.678-20.078,44.756-44.756,44.756h-59.326h-39.959H104.414H64.455
	H9.994c-5.517,0-9.99,4.473-9.99,9.99c0,5.516,4.472,9.99,9.99,9.99h44.471v9.99c0,3.502,0.609,6.863,1.718,9.99H10.509
	c-5.517,0-9.99,4.473-9.99,9.99c0,5.516,4.472,9.99,9.99,9.99h167.83c5.517,0,9.99-4.473,9.99-9.99c0-5.516-4.472-9.99-9.99-9.99
	h-65.653c1.109-3.127,1.718-6.487,1.718-9.99v-9.99h223.071v9.99c0,3.502,0.609,6.863,1.718,9.99h-82.889
	c-5.517,0-9.99,4.473-9.99,9.99c0,5.516,4.472,9.99,9.99,9.99H502.01c5.517,0,9.99-4.473,9.99-9.99
	C512,386.346,507.528,381.872,502.01,381.872z M283.843,242.014c-9.915,0-17.982-8.067-17.982-17.982s8.067-17.982,17.982-17.982
	h135.094l35.963,35.963H283.843z M94.424,371.882c0,5.508-4.481,9.99-9.99,9.99c-5.508,0-9.99-4.481-9.99-9.99v-9.99h19.98V371.882z
	 M357.455,371.882v-9.99h19.98v9.99c0,5.508-4.481,9.99-9.99,9.99C361.936,381.872,357.455,377.39,357.455,371.882z"/>
<path d="M217.299,381.872c-2.627,0-5.205,1.068-7.063,2.927c-1.858,1.858-2.927,4.435-2.927,7.063c0,2.627,1.069,5.205,2.927,7.062
	c1.858,1.858,4.436,2.928,7.063,2.928s5.205-1.069,7.063-2.928c1.858-1.857,2.927-4.435,2.927-7.062
	c0-2.627-1.069-5.205-2.927-7.063C222.504,382.941,219.927,381.872,217.299,381.872z"/>
<path d="M165.836,242.014H9.994c-5.517,0-9.99,4.473-9.99,9.99c0,5.516,4.472,9.99,9.99,9.99h155.842
	c20.932,0,37.961-17.03,37.961-37.961s-17.03-37.961-37.961-37.961H48.138c-5.517,0-9.99,4.473-9.99,9.99
	c0,5.516,4.472,9.99,9.99,9.99h117.698c9.915,0,17.982,8.067,17.982,17.982S175.751,242.014,165.836,242.014z"/>
<path d="M9.99,186.07c-2.627,0-5.205,1.068-7.063,2.927C1.069,190.856,0,193.433,0,196.06c0,2.627,1.069,5.205,2.927,7.062
	c1.858,1.858,4.435,2.928,7.063,2.928c2.637,0,5.205-1.069,7.063-2.928c1.868-1.857,2.927-4.434,2.927-7.062
	c0-2.627-1.059-5.205-2.927-7.063C15.195,187.138,12.627,186.07,9.99,186.07z"/>
<g>
</g>
<g>
</g>
<g>
</g>
<g>
</g>
<g>
</g>
<g>
</g>
<g>
</g>
<g>
</g>
<g>
</g>
<g>
</g>
<g>
</g>
<g>
</g>
<g>
</g>
<g>
</g>
<g>
</g>
</svg>
